<svg width="1162" height="225" viewBox="0 0 1162 225" fill="none" xmlns="http://www.w3.org/2000/svg">
<path d="M165.945 62.0665C173.718 68.862 179.7 77.8834 183.718 89.7256C187.666 101.364 189.722 115.726 189.722 133.392V141.151H13.3347C13.7082 154.15 15.2803 164.987 18.1207 173.943C21.108 183.357 25.4994 190.636 31.3856 196.122C37.4388 201.764 45.1961 205.647 54.7392 208.13C64.4924 210.668 76.1392 211.749 89.7527 211.749H100.817C113.168 211.749 124.186 210.858 133.72 208.8C143.095 206.775 151.029 203.629 157.379 199.094C162.742 195.262 167.03 190.371 170.161 184.253C173.335 178.048 175.346 170.523 176.109 161.5L176.349 158.668H189.638L189.388 161.981C188.549 173.119 186.095 182.521 182.137 190.409C178.129 198.397 172.608 204.783 165.682 209.802C158.024 215.351 148.684 219.167 137.805 221.587C127.08 223.972 114.898 225 101.386 225H89.1863C74.121 225 61.0905 223.724 49.9693 220.721C38.634 217.662 29.2858 212.811 21.8064 205.708C14.3358 198.613 8.85219 189.374 5.2523 177.542C1.71576 165.92 0 151.823 0 134.808C0 117.793 1.71576 103.677 5.2523 92.0274C8.85087 80.1738 14.3336 70.8994 21.8064 63.763C29.2675 56.6397 38.6121 51.7572 49.9526 48.6679C61.1027 45.6303 74.1386 44.3316 89.1863 44.3316H101.386C114.906 44.3316 127.104 45.3834 137.851 48.0844C148.779 50.8311 158.192 55.2864 165.946 62.0665H165.945ZM1111.78 139.731H1129C1138.08 139.731 1146.33 143.437 1152.31 149.408C1158.29 155.377 1162 163.616 1162 172.679V189.881C1162 198.943 1158.29 207.182 1152.31 213.152C1146.33 219.122 1138.08 222.828 1129 222.828H1111.78C1102.7 222.828 1094.45 219.122 1088.47 213.152C1082.49 207.182 1078.78 198.943 1078.78 189.881V172.679C1078.78 163.616 1082.49 155.377 1088.47 149.408C1094.45 143.437 1102.7 139.731 1111.78 139.731ZM915.48 52.6457L960.85 165.104L1007 50.7057H1068.46L998.363 218.625H923.335C899.955 162.659 876.605 106.68 853.245 50.7057H914.698L915.48 52.6455V52.6457ZM790.602 3.08447V218.626H746.407V0.00037384H790.602V3.08465V3.08447ZM658.389 204.174C644.008 217.828 622.338 222.875 592.47 222.875H569.491C539.625 222.875 517.956 217.828 503.575 204.174C489.196 190.52 482.433 168.567 482.433 134.808C482.433 101.053 489.197 79.0279 503.575 65.3006C517.95 51.5755 539.62 46.4562 569.491 46.4562H592.47C622.341 46.4562 644.013 51.5755 658.389 65.3006C672.768 79.0277 679.533 101.053 679.533 134.808C679.533 168.567 672.769 190.52 658.389 204.174ZM528.284 180.193C537.069 189.064 551.343 192.627 572.614 192.627H589.35C610.621 192.627 624.895 189.064 633.68 180.193C642.48 171.307 646.121 156.763 646.121 134.808C646.121 112.838 642.48 98.2204 633.68 89.2675C624.896 80.3327 610.623 76.7043 589.35 76.7043H572.614C551.34 76.7043 537.068 80.3327 528.284 89.2675C519.484 98.2204 515.844 112.839 515.844 134.808C515.844 156.763 519.484 171.307 528.284 180.193ZM261.729 51.0644L338.194 196.878L416.063 47.8717H441.331L428.917 71.4428C401.854 122.83 374.805 174.192 350.863 219.797L349.991 221.46H326.425L325.552 219.809C299.886 171.33 274.297 122.802 248.711 74.2795L234.787 47.8718H260.059L261.729 51.0646V51.0644ZM31.3856 73.2945C25.5037 78.7941 21.1116 86.0849 18.1207 95.4991C15.2801 104.441 13.7089 115.245 13.3347 128.184H176.397C176.038 114.492 174.235 103.302 171.094 94.2228C167.801 84.703 163.015 77.5084 156.863 72.1646L156.869 72.1588C150.556 66.6797 142.695 63.0551 133.441 60.7919C123.997 58.4821 113.062 57.5831 100.817 57.5831H89.7527C76.1479 57.5831 64.5047 58.6802 54.7493 61.2377C45.1865 63.7451 37.4256 67.6478 31.3856 73.2946V73.2945Z" fill="white"/>
</svg>
